<?xml version="1.0" encoding="UTF-8" standalone="no"?>
<svg
   xmlns:dc="http://purl.org/dc/elements/1.1/"
   xmlns:cc="http://creativecommons.org/ns#"
   xmlns:rdf="http://www.w3.org/1999/02/22-rdf-syntax-ns#"
   xmlns:svg="http://www.w3.org/2000/svg"
   xmlns="http://www.w3.org/2000/svg"
   xmlns:sodipodi="http://sodipodi.sourceforge.net/DTD/sodipodi-0.dtd"
   xmlns:inkscape="http://www.inkscape.org/namespaces/inkscape"
   width="512"
   height="256"
   viewBox="0 0 135.46666 67.733336"
   version="1.1"
   id="svg8"
   inkscape:version="1.0.2 (e86c870879, 2021-01-15)"
   sodipodi:docname="slug.svg">
  <defs
     id="defs2" />
  <sodipodi:namedview
     id="base"
     pagecolor="#ffffff"
     bordercolor="#666666"
     borderopacity="1.0"
     inkscape:pageopacity="0.0"
     inkscape:pageshadow="2"
     inkscape:zoom="1.979899"
     inkscape:cx="253.83988"
     inkscape:cy="127.65957"
     inkscape:document-units="mm"
     inkscape:current-layer="layer1"
     inkscape:document-rotation="0"
     showgrid="false"
     inkscape:window-width="2560"
     inkscape:window-height="1420"
     inkscape:window-x="0"
     inkscape:window-y="20"
     inkscape:window-maximized="1"
     units="px"
     fit-margin-top="0"
     fit-margin-left="0"
     fit-margin-right="0"
     fit-margin-bottom="0" />
  <metadata
     id="metadata5">
    <rdf:RDF>
      <cc:Work
         rdf:about="">
        <dc:format>image/svg+xml</dc:format>
        <dc:type
           rdf:resource="http://purl.org/dc/dcmitype/StillImage" />
        <dc:title></dc:title>
      </cc:Work>
    </rdf:RDF>
  </metadata>
  <g
     inkscape:label="Layer 1"
     inkscape:groupmode="layer"
     id="layer1"
     transform="translate(-57.320806,-104.64481)">
    <g
       id="g931"
       transform="translate(9.7876042,10.548373)">
      <path
         style="fill:#79d4fd;fill-opacity:1;stroke:#000000;stroke-width:0.79375;stroke-linecap:round;stroke-linejoin:round;stroke-miterlimit:4;stroke-dasharray:none;stroke-opacity:1"
         d="m 68.035177,133.59225 c 0.728287,-7.74986 -2.345345,-13.67587 -6.301441,-20.49334 l 6.978271,-1.07482 c -1.814825,6.3013 0.823037,11.55676 5.545653,18.60477"
         id="path900"
         sodipodi:nodetypes="cccc" />
      <path
         style="fill:#79d4fd;fill-opacity:1;stroke:#000000;stroke-width:0.79375;stroke-linecap:butt;stroke-linejoin:miter;stroke-miterlimit:4;stroke-dasharray:none;stroke-opacity:1"
         d="m 71.827286,150.85894 c -15.319123,-0.004 -16.703215,-25.07318 4.362106,-24.76381 88.792428,1.30403 114.435778,24.79784 84.940988,24.78939 z"
         id="path898"
         sodipodi:nodetypes="ssss" />
      <path
         style="fill:#ffffff;stroke:#000000;stroke-width:0.79375;stroke-linecap:butt;stroke-linejoin:round;stroke-miterlimit:4;stroke-dasharray:none;stroke-opacity:1"
         d="m 66.067247,140.63517 c 0.06876,1.27423 0.38039,2.44811 1.015069,3.4885 l 1.595269,-0.28695 c -0.326915,-1.02986 -0.759369,-2.07493 -0.630918,-3.03917 z"
         id="path851"
         sodipodi:nodetypes="ccccc" />
      <path
         style="fill:#c9b8bc;fill-opacity:1;stroke:#000000;stroke-width:0.79375;stroke-linecap:butt;stroke-linejoin:round;stroke-miterlimit:4;stroke-dasharray:none;stroke-opacity:1"
         d="m 63.938499,139.87983 c -0.733892,-2.28428 6.728032,-2.97813 6.353277,0.8076 -0.107155,1.08246 -2.571604,0.17208 -3.635201,0.17076 -0.931681,-0.001 -2.187177,0.67409 -2.718076,-0.97836 z"
         id="path849"
         sodipodi:nodetypes="ssss" />
      <path
         style="fill:#6b6e7f;fill-opacity:1;stroke:#000000;stroke-width:0.79375;stroke-linecap:butt;stroke-linejoin:round;stroke-miterlimit:4;stroke-dasharray:none;stroke-opacity:1"
         d="m 64.874213,137.48292 c -0.02504,0.98295 2.460413,1.59366 3.179252,0.5587 1.036548,-1.49238 -3.118796,-2.93244 -3.179252,-0.5587 z"
         id="path847"
         sodipodi:nodetypes="sss" />
      <path
         style="fill:#79d4fd;fill-opacity:1;stroke:#000000;stroke-width:0.79375;stroke-linecap:round;stroke-linejoin:round;stroke-miterlimit:4;stroke-dasharray:none;stroke-opacity:1"
         d="m 79.62621,130.88863 c 0.728287,-7.74986 -1.585249,-11.34963 -5.541345,-18.1671 l 6.978271,-1.07482 c -1.814825,6.3013 0.06758,13.51234 4.506244,17.02758"
         id="path902"
         sodipodi:nodetypes="cccc" />
      <g
         id="g916">
        <g
           id="g884"
           transform="translate(0.04071684,-25.665458)">
          <path
             style="fill:#ffffff;stroke:#000000;stroke-width:0.79375;stroke-linecap:butt;stroke-linejoin:round;stroke-miterlimit:4;stroke-dasharray:none;stroke-opacity:1"
             d="m 58.697025,136.66536 c -0.120632,-6.99597 13.375175,-6.85777 13.269737,0.0923 -0.09658,6.3663 -13.143233,7.24439 -13.269737,-0.0923 z"
             id="path878"
             sodipodi:nodetypes="sss" />
          <path
             style="fill:#000000;stroke:#000000;stroke-width:0.793752;stroke-linecap:butt;stroke-linejoin:round;stroke-miterlimit:4;stroke-dasharray:none;stroke-opacity:1"
             d="m 57.677128,136.61976 c -0.02837,-1.41075 3.145351,-1.38288 3.120557,0.0186 -0.02271,1.28377 -3.090807,1.46084 -3.120557,-0.0186 z"
             id="path880"
             sodipodi:nodetypes="sss" />
        </g>
        <g
           id="g888"
           transform="translate(0.04071684,-25.665458)">
          <path
             style="fill:#ffffff;stroke:#000000;stroke-width:0.79375;stroke-linecap:butt;stroke-linejoin:round;stroke-miterlimit:4;stroke-dasharray:none;stroke-opacity:1"
             d="m 71.418612,136.65963 c -0.114575,-8.0331 12.703635,-7.87441 12.603491,0.10594 -0.09173,7.31007 -12.483338,8.31834 -12.603491,-0.10594 z"
             id="path871"
             sodipodi:nodetypes="sss" />
          <path
             style="fill:#000000;stroke:#000000;stroke-width:0.79375;stroke-linecap:butt;stroke-linejoin:round;stroke-miterlimit:4;stroke-dasharray:none;stroke-opacity:1"
             d="m 74.033196,135.99535 c -0.02837,-2.34681 3.145351,-2.30044 3.120557,0.0309 -0.02271,2.13558 -3.090807,2.43014 -3.120557,-0.0309 z"
             id="path876"
             sodipodi:nodetypes="sss" />
        </g>
      </g>
    </g>
  </g>
</svg>
